# xmcd CD database file
#
# Track frame offsets:
#	150
#	13402
#	34879
#	61184
#	79646
#	94614
#	110445
#	130171
#	152066
#	172992
#
# Disc length: 2573 seconds
#
# Revision: 2
# Processed by: cddbd v1.4PL0 Copyright (c) Steve Scherf et al.
# Submitted via: CDex 1.40Beta8
#
DISCID=750a0b0a
DTITLE=Roger Creager - Having Fun All Wrong
DYEAR=1998
DGENRE=Country
TTITLE0=Roger Creager - I Can Too
TTITLE1=Roger Creager - Moving On
TTITLE2=Roger Creager - The Morning
TTITLE3=Roger Creager - The Everclear Song
TTITLE4=Roger Creager - Crying, Moaning
TTITLE5=Roger Creager - Feel Again
TTITLE6=Roger Creager - Until The Thought of You
TTITLE7=Roger Creager - L.A. Freeway
TTITLE8=Roger Creager - Fun All Wrong
TTITLE9=Roger Creager - Let It Roll
EXTD=Texas Music - Produced by Lloyd Maines YEAR: 1998 ID3G: 2
EXTT0=
EXTT1=
EXTT2=
EXTT3=
EXTT4=
EXTT5=
EXTT6=
EXTT7=
EXTT8=
EXTT9=
PLAYORDER=
